<svg width="62" height="62" viewBox="0 0 62 62" fill="none" xmlns="http://www.w3.org/2000/svg">
<rect width="62" height="62" rx="31" fill="#28A745" fill-opacity="0.5"/>
<rect x="3.5" y="3.5" width="55" height="55" rx="27.5" stroke="#28A745" stroke-opacity="0.05" stroke-width="7"/>
<path d="M29.6667 41.667H23C22.6464 41.667 22.3072 41.5265 22.0572 41.2765C21.8071 41.0264 21.6667 40.6873 21.6667 40.3337V21.667C21.6667 21.3134 21.8071 20.9742 22.0572 20.7242C22.3072 20.4741 22.6464 20.3337 23 20.3337H29.6667V24.3337C29.6667 25.3945 30.0881 26.4119 30.8382 27.1621C31.5884 27.9122 32.6058 28.3337 33.6667 28.3337H37.6667V31.0003C37.6667 31.3539 37.8071 31.6931 38.0572 31.9431C38.3072 32.1932 38.6464 32.3337 39 32.3337C39.3536 32.3337 39.6928 32.1932 39.9428 31.9431C40.1929 31.6931 40.3333 31.3539 40.3333 31.0003V26.9203C40.3194 26.7978 40.2926 26.6772 40.2533 26.5603V26.4403C40.1863 26.3009 40.1011 26.1708 40 26.0537L32 18.0537C31.8828 17.9526 31.7528 17.8674 31.6133 17.8003C31.5735 17.7947 31.5331 17.7947 31.4933 17.8003L31.08 17.667H23C21.9391 17.667 20.9217 18.0884 20.1716 18.8386C19.4214 19.5887 19 20.6061 19 21.667V40.3337C19 41.3945 19.4214 42.4119 20.1716 43.1621C20.9217 43.9122 21.9391 44.3337 23 44.3337H29.6667C30.0203 44.3337 30.3594 44.1932 30.6095 43.9431C30.8595 43.6931 31 43.3539 31 43.0003C31 42.6467 30.8595 42.3076 30.6095 42.0575C30.3594 41.8075 30.0203 41.667 29.6667 41.667ZM32.3333 22.2137L35.7867 25.667H33.6667C33.313 25.667 32.9739 25.5265 32.7239 25.2765C32.4738 25.0264 32.3333 24.6873 32.3333 24.3337V22.2137ZM40.3333 35.0003H32.88L34.6133 33.2803C34.8644 33.0293 35.0055 32.6887 35.0055 32.3337C35.0055 31.9786 34.8644 31.6381 34.6133 31.387C34.3623 31.1359 34.0217 30.9949 33.6667 30.9949C33.3116 30.9949 32.9711 31.1359 32.72 31.387L28.72 35.387C28.6022 35.5166 28.5075 35.6654 28.44 35.827C28.3066 36.1516 28.3066 36.5157 28.44 36.8403C28.5011 37.0052 28.5965 37.1552 28.72 37.2803L32.72 41.2803C32.8439 41.4053 32.9914 41.5045 33.1539 41.5722C33.3164 41.6399 33.4907 41.6747 33.6667 41.6747C33.8427 41.6747 34.017 41.6399 34.1794 41.5722C34.3419 41.5045 34.4894 41.4053 34.6133 41.2803C34.7383 41.1564 34.8375 41.0089 34.9052 40.8464C34.9729 40.6839 35.0077 40.5097 35.0077 40.3337C35.0077 40.1576 34.9729 39.9834 34.9052 39.8209C34.8375 39.6584 34.7383 39.5109 34.6133 39.387L32.88 37.667H40.3333C40.687 37.667 41.0261 37.5265 41.2761 37.2765C41.5262 37.0264 41.6667 36.6873 41.6667 36.3337C41.6667 35.98 41.5262 35.6409 41.2761 35.3908C41.0261 35.1408 40.687 35.0003 40.3333 35.0003Z" fill="white"/>
</svg>
